<?xml version="1.0" standalone="no"?>
<!DOCTYPE svg PUBLIC "-//W3C//DTD SVG 20010904//EN"
 "http://www.w3.org/TR/2001/REC-SVG-20010904/DTD/svg10.dtd">
<svg version="1.0" xmlns="http://www.w3.org/2000/svg"
 width="400.000000pt" height="400.000000pt" viewBox="0 0 400.000000 400.000000"
 preserveAspectRatio="xMidYMid meet">
<metadata>
Created by potrace 1.11, written by Peter Selinger 2001-2013
</metadata>
<g transform="translate(0.000000,400.000000) scale(0.100000,-0.100000)"
fill="#000000" stroke="none">
<path d="M1480 3842 c-13 -14 -12 -15 2 -9 12 4 15 2 11 -9 -4 -11 -9 -12 -16
-5 -8 8 -17 6 -31 -7 -11 -9 -16 -12 -13 -6 4 7 0 14 -8 18 -8 3 -19 -3 -24
-12 -7 -11 -11 -12 -11 -4 0 8 -5 10 -12 6 -9 -5 -9 -3 1 9 7 9 17 14 22 11 5
-3 9 -1 9 5 0 5 -9 9 -19 8 -11 0 -17 -5 -15 -9 6 -9 -6 -11 -46 -10 -14 0
-19 -2 -12 -5 14 -6 16 -33 2 -33 -5 0 -10 5 -10 10 0 6 -5 10 -11 10 -5 0 -8
-4 -5 -8 3 -5 -1 -9 -9 -9 -8 0 -15 4 -15 9 0 4 -5 8 -11 8 -6 0 -8 -7 -5 -16
4 -10 2 -13 -6 -8 -6 4 -17 -1 -25 -11 -7 -11 -14 -14 -14 -7 -3 27 -4 31 -13
39 -5 4 -6 3 -2 -4 3 -6 -3 -18 -15 -27 -13 -8 -18 -20 -14 -28 3 -7 0 -4 -9
6 -12 15 -19 16 -29 8 -10 -9 -17 -8 -27 1 -12 10 -12 9 -1 -5 7 -10 16 -16
20 -14 4 3 13 0 21 -5 11 -6 5 -8 -18 -4 -24 4 -32 2 -26 -6 4 -7 3 -9 -4 -5
-6 3 -12 -2 -14 -11 -3 -15 -5 -14 -10 5 -4 14 -2 20 4 15 7 -3 8 -1 4 5 -10
17 -23 15 -30 -4 -4 -9 -2 -13 5 -8 8 4 7 0 0 -15 -13 -24 -23 -29 -15 -7 3 8
0 17 -7 22 -8 4 -10 3 -5 -4 11 -19 -5 -14 -20 6 -12 15 -13 14 -4 -11 5 -16
6 -26 1 -23 -5 3 -14 -1 -21 -9 -7 -8 -17 -11 -24 -7 -15 10 -66 10 -60 0 3
-5 10 -5 16 -2 6 4 8 2 4 -4 -8 -13 -46 -11 -46 3 0 5 -4 4 -9 -4 -5 -8 -7
-19 -5 -25 3 -7 -5 -12 -16 -13 -11 -1 -18 2 -16 6 3 4 -1 8 -9 8 -12 0 -12
-4 2 -20 10 -11 12 -17 6 -13 -7 4 -22 9 -33 11 -19 4 -19 3 -4 -21 15 -22 15
-24 0 -18 -9 3 -16 10 -16 15 0 15 -17 10 -24 -7 -3 -8 -2 -12 3 -9 5 3 12 1
15 -3 3 -5 -14 -9 -38 -8 -25 1 -42 -2 -40 -6 2 -3 -4 -9 -13 -12 -15 -4 -15
-5 2 -4 41 1 55 -2 55 -12 0 -7 -6 -7 -20 0 -11 6 -21 8 -21 5 -1 -3 -2 -11
-3 -17 -1 -7 -7 -12 -14 -10 -7 1 -15 -5 -18 -13 -5 -12 -10 -12 -27 -3 -20
10 -21 10 -8 -5 11 -14 11 -18 -4 -23 -9 -4 -20 -3 -24 2 -3 5 -13 10 -21 12
-9 1 -6 -5 8 -16 13 -10 20 -21 16 -25 -4 -4 -17 1 -28 10 -20 17 -20 17 -6
-1 13 -18 13 -19 -1 -14 -9 4 -16 1 -16 -7 0 -8 7 -11 16 -7 21 7 12 -2 -18
-18 -13 -6 -21 -8 -17 -2 3 5 0 12 -7 15 -10 4 -13 -2 -9 -19 2 -14 0 -24 -7
-24 -7 0 -9 -5 -5 -11 4 -7 -1 -7 -16 1 -24 13 -52 -1 -29 -15 8 -5 10 -4 5 3
-4 7 -2 12 3 12 6 0 11 -4 11 -8 0 -17 -13 -21 -33 -11 -15 9 -18 8 -12 -2 6
-9 3 -10 -10 -5 -13 5 -15 3 -8 -6 12 -16 13 -49 1 -42 -5 3 -6 9 -3 14 3 5 1
11 -3 14 -5 3 -8 -9 -7 -27 2 -18 -4 -42 -11 -52 -8 -10 -14 -14 -14 -9 0 16
-28 13 -34 -3 -3 -8 -11 -11 -16 -8 -6 4 -10 3 -9 -2 5 -27 -1 -35 -16 -23
-10 9 -15 9 -15 1 0 -10 13 -15 31 -13 4 1 5 -8 2 -19 -5 -18 -6 -18 -18 -3
-10 14 -14 14 -20 4 -5 -9 -4 -15 3 -18 7 -2 12 -8 12 -13 0 -6 -5 -7 -12 -3
-8 5 -9 0 -5 -15 3 -13 3 -21 0 -18 -7 8 -32 -16 -27 -25 2 -4 -1 -10 -7 -14
-7 -4 -9 -3 -5 4 3 6 2 13 -3 16 -5 3 -12 -1 -15 -10 -3 -8 -10 -13 -15 -10
-11 7 -9 -13 3 -33 7 -11 5 -13 -7 -8 -9 3 -16 3 -16 -1 1 -4 1 -9 -1 -12 -1
-3 -3 -16 -6 -30 -4 -24 -3 -24 11 -6 8 10 12 23 9 27 -3 5 -1 9 5 9 5 0 8
-12 6 -27 -1 -16 -8 -27 -14 -26 -6 2 -11 0 -12 -5 -5 -46 -16 -63 -29 -42 -7
11 -10 11 -10 2 0 -7 7 -15 15 -18 20 -8 13 -50 -8 -46 -8 1 -19 -3 -23 -9 -4
-8 -3 -9 4 -5 7 4 20 2 29 -4 15 -10 15 -11 1 -6 -24 7 -29 -4 -10 -23 10 -9
11 -11 3 -6 -12 8 -13 6 -7 -9 7 -20 7 -20 -16 0 -23 19 -23 19 -8 -1 8 -11
20 -23 25 -27 7 -5 6 -8 0 -8 -6 0 -16 5 -21 10 -8 8 -15 5 -25 -7 -13 -16
-12 -17 4 -4 11 9 17 10 18 2 1 -6 2 -17 3 -23 1 -7 0 -17 -3 -23 -3 -5 -6
-16 -8 -24 -1 -8 -6 -17 -12 -20 -6 -4 -7 -12 -1 -21 12 -19 13 -33 2 -26 -5
3 -9 -2 -9 -10 0 -8 5 -13 11 -11 7 3 11 -9 11 -29 0 -24 -5 -34 -15 -34 -9 0
-11 -3 -5 -8 6 -4 10 -26 10 -50 -1 -24 4 -47 12 -54 10 -8 13 -7 13 2 0 8 3
10 6 7 4 -4 1 -13 -6 -22 -15 -18 0 -20 19 -2 11 10 11 8 0 -10 -7 -12 -18
-19 -24 -15 -5 3 -4 -2 4 -11 12 -15 11 -17 -5 -18 -13 0 -15 -2 -5 -6 8 -3
21 4 30 16 16 21 17 21 17 2 0 -11 -4 -17 -8 -15 -9 6 -6 -26 5 -43 9 -14 -2
-43 -16 -43 -6 0 -7 -3 -4 -6 4 -4 13 -1 22 6 9 7 18 10 22 6 3 -3 1 -6 -6 -6
-9 0 -9 -5 0 -22 11 -20 11 -22 -3 -10 -13 10 -18 10 -24 1 -4 -7 -3 -9 3 -6
6 4 14 0 17 -9 3 -9 11 -12 18 -8 7 4 1 -8 -12 -27 l-24 -34 30 25 c16 14 23
18 17 10 -16 -18 -17 -34 -1 -24 7 4 8 3 4 -5 -4 -6 -12 -9 -17 -5 -6 3 -5 -3
2 -15 10 -14 15 -17 21 -8 6 9 8 9 8 0 0 -20 -18 -24 -29 -6 -5 10 -12 16 -14
13 -10 -10 21 -41 41 -43 11 0 18 -5 16 -9 -3 -5 -13 -7 -21 -6 -9 2 -17 -3
-19 -10 -1 -7 0 -8 3 -2 8 16 23 1 17 -18 -5 -16 -5 -16 6 1 6 9 16 17 23 17
8 0 7 -3 -2 -9 -7 -5 -10 -14 -7 -20 4 -6 0 -14 -8 -17 -12 -5 -13 -9 -3 -19
7 -7 16 -11 21 -8 4 3 2 9 -5 14 -10 6 -8 8 8 6 12 -2 26 -7 30 -13 5 -5 4 -6
-1 -1 -5 4 -18 0 -28 -10 -22 -19 -25 -41 -3 -23 13 11 14 10 9 -5 -5 -12 -1
-23 12 -33 16 -12 16 -14 2 -9 -20 7 -34 -8 -17 -18 5 -4 8 -13 5 -21 -3 -8
-2 -13 2 -13 20 3 32 -3 32 -16 0 -8 5 -15 11 -15 6 0 9 -7 5 -15 -3 -8 2 -19
12 -24 9 -6 12 -11 7 -11 -6 0 -15 4 -21 10 -6 6 -15 5 -24 -1 -12 -9 -12 -10
4 -5 14 5 17 2 12 -9 -3 -9 -2 -13 4 -10 6 4 10 -5 10 -20 0 -14 -4 -24 -8
-21 -5 3 -9 -1 -9 -10 0 -10 7 -12 21 -8 19 6 19 5 4 -10 -9 -9 -25 -13 -35
-10 -10 3 -6 -2 10 -11 15 -9 33 -13 40 -10 6 4 1 -3 -13 -14 -14 -12 -18 -19
-9 -16 11 4 18 -1 22 -15 4 -17 3 -19 -9 -9 -11 9 -14 9 -14 0 0 -7 -5 -9 -12
-5 -7 4 -10 4 -6 -1 13 -14 70 -17 62 -3 -5 7 -3 8 6 3 10 -6 9 -11 -5 -22
-11 -7 -13 -13 -6 -13 7 0 10 -4 6 -9 -3 -5 -1 -12 4 -16 5 -3 8 -14 6 -25 -2
-11 0 -22 4 -25 5 -2 7 9 6 26 -1 16 0 27 4 24 7 -7 8 -13 10 -48 0 -14 11
-29 24 -36 23 -12 28 -35 15 -57 -4 -5 2 -10 12 -11 13 -1 17 3 13 15 -4 14
-3 14 5 3 6 -8 8 -20 5 -27 -2 -6 6 -22 19 -34 13 -13 18 -20 11 -16 -14 8
-43 -3 -43 -16 0 -7 5 -6 14 1 10 9 17 7 27 -6 12 -15 12 -16 -3 -10 -10 3
-18 2 -18 -3 0 -6 8 -10 18 -10 20 0 44 -44 30 -58 -5 -5 -3 -9 6 -9 14 0 16
14 3 35 -5 7 -4 12 2 12 10 0 12 -5 11 -25 0 -3 7 -19 15 -35 8 -16 15 -32 15
-35 -1 -27 2 -35 10 -35 7 0 7 6 0 19 -12 23 -1 34 20 20 10 -6 11 -9 3 -9 -7
0 -13 -5 -13 -11 0 -5 4 -7 10 -4 6 4 7 -1 3 -12 -6 -16 -5 -17 12 -3 17 14
17 14 4 -8 -8 -12 -15 -18 -17 -12 -2 5 -9 10 -15 10 -6 0 2 -13 17 -29 15
-16 24 -31 19 -33 -4 -3 -2 -3 5 -2 22 6 42 -8 42 -28 0 -11 -4 -16 -11 -13
-6 4 -5 -2 2 -13 7 -12 17 -18 22 -15 5 3 4 9 -3 13 -8 5 -8 9 3 13 24 9 28
-4 11 -31 -9 -13 -11 -22 -6 -18 6 3 13 2 17 -4 4 -6 11 -8 16 -5 5 4 9 2 9
-4 0 -5 -5 -11 -12 -13 -8 -3 -6 -7 5 -11 9 -3 19 -1 23 5 4 7 3 8 -4 4 -8 -5
-10 -1 -5 9 8 23 22 -1 16 -26 -3 -10 0 -19 6 -19 6 0 11 -5 11 -11 0 -5 -4
-8 -8 -5 -4 2 -8 -4 -8 -14 0 -10 4 -16 8 -14 4 3 8 0 8 -5 0 -6 5 -11 11 -11
8 0 8 4 0 14 -9 11 -9 16 0 22 7 4 9 3 5 -4 -3 -6 2 -15 11 -21 10 -6 12 -11
6 -11 -16 0 -11 -36 7 -53 10 -9 11 -9 6 0 -4 8 -2 13 5 13 7 0 4 7 -7 16 -18
15 -18 15 3 5 15 -8 21 -18 18 -32 -3 -12 -2 -19 2 -16 3 3 12 -1 20 -9 8 -8
19 -11 25 -8 7 4 8 2 4 -4 -5 -9 -13 -9 -27 -1 -12 6 -23 8 -26 6 -2 -3 5 -8
16 -12 12 -3 18 -11 15 -17 -4 -7 -2 -8 5 -4 18 12 61 14 55 4 -3 -5 -12 -7
-20 -4 -8 3 -14 1 -14 -4 0 -12 37 -23 51 -14 7 4 9 3 6 -4 -4 -5 -4 -17 -1
-26 5 -14 9 -14 22 -4 13 11 14 11 8 0 -4 -7 -2 -19 4 -27 6 -8 9 -18 6 -23
-3 -5 1 -18 9 -28 13 -17 14 -17 9 -1 -5 13 -2 16 10 11 9 -3 13 -10 10 -15
-3 -5 2 -9 10 -9 9 0 16 -5 16 -11 0 -5 4 -8 9 -4 5 3 12 1 16 -5 4 -6 10 -8
14 -6 4 3 8 -1 8 -9 0 -13 -2 -13 -17 0 -14 13 -16 12 -17 -8 -2 -15 0 -18 6
-8 7 10 10 11 16 1 6 -10 11 -9 21 4 8 11 14 13 19 7 3 -6 1 -11 -4 -11 -6 0
-11 -7 -11 -15 0 -14 18 -20 49 -15 8 1 11 -4 8 -12 -4 -11 3 -14 28 -12 26 2
37 -2 50 -22 9 -13 13 -30 9 -36 -4 -7 -3 -8 4 -4 7 4 12 2 12 -4 0 -7 7 -10
15 -6 8 3 22 -2 30 -11 9 -8 28 -16 44 -17 15 0 28 -6 29 -13 1 -7 3 -20 4
-28 2 -18 10 -19 25 -4 8 8 13 7 18 -2 6 -8 4 -10 -5 -4 -9 6 -11 4 -5 -5 6
-10 11 -9 23 6 13 18 14 18 7 -3 -4 -14 -2 -23 5 -23 6 0 8 -5 4 -12 -4 -7 -3
-8 4 -4 6 4 9 13 6 20 -3 8 -1 17 5 21 7 3 8 0 5 -9 -7 -19 7 -21 26 -3 12 10
12 9 1 -6 -7 -9 -12 -17 -10 -18 2 0 13 -2 23 -4 10 -2 26 -12 35 -21 15 -17
15 -17 -1 -5 -12 9 -18 9 -24 0 -4 -8 -3 -9 4 -5 7 4 12 3 12 -2 0 -13 53 -10
63 3 5 5 6 1 3 -10 -5 -17 1 -24 29 -37 19 -8 32 -12 30 -8 -3 4 2 11 11 14
12 5 14 1 9 -17 -5 -19 -4 -20 5 -5 6 10 16 18 23 18 8 0 8 -3 -1 -9 -11 -7
-11 -9 2 -14 10 -4 17 1 22 15 5 16 8 18 15 7 5 -8 9 -18 9 -24 0 -5 -5 -3
-10 5 -5 8 -10 11 -10 5 0 -5 5 -17 10 -25 5 -8 10 -10 10 -4 0 7 13 14 30 16
21 3 27 1 20 -7 -6 -7 -1 -15 13 -25 19 -12 21 -11 10 2 -7 8 -10 18 -6 22 4
4 13 -4 21 -16 8 -14 11 -16 8 -5 -4 11 -2 16 5 12 5 -4 17 -1 26 7 9 7 14 8
10 2 -4 -7 0 -15 9 -18 9 -3 12 -11 8 -18 -3 -7 6 -1 20 15 29 29 51 27 43 -4
-7 -28 9 -33 41 -12 15 11 34 19 42 18 8 -1 22 4 30 9 13 10 13 9 1 -6 -7 -10
-17 -16 -21 -13 -5 3 -11 1 -15 -5 -4 -6 -10 -8 -15 -5 -5 3 -11 2 -14 -3 -2
-4 4 -9 15 -9 10 -1 19 3 19 9 0 6 7 5 17 -3 9 -8 14 -9 11 -4 -4 6 3 17 15
25 20 12 21 12 8 -3 -18 -22 3 -22 25 0 16 16 16 16 10 -4 -7 -22 8 -41 19
-24 4 7 15 7 31 1 17 -7 23 -7 19 0 -3 6 0 10 7 11 7 0 23 2 36 5 12 2 22 0
22 -5 0 -6 -9 -8 -20 -6 -12 2 -18 0 -15 -6 4 -5 11 -6 17 -3 8 5 9 1 5 -12
-7 -18 -6 -18 7 -2 15 21 61 25 50 6 -4 -7 -4 -10 1 -6 4 4 15 2 24 -4 13 -10
14 -10 4 1 -6 7 -9 20 -6 28 4 11 8 10 19 -4 13 -16 14 -15 9 12 -5 28 -5 29
5 6 8 -18 14 -21 22 -13 6 6 17 8 24 5 9 -3 13 0 11 8 -2 8 -2 10 1 6 2 -5 13
0 25 10 11 10 17 13 14 6 -4 -6 -3 -14 3 -18 5 -3 10 0 10 7 0 8 5 6 11 -5 11
-18 29 -14 29 6 0 7 -4 6 -10 -3 -5 -8 -10 -10 -10 -4 0 6 8 18 17 25 10 8 14
9 10 2 -4 -6 -3 -14 3 -18 6 -4 8 -10 6 -14 -3 -3 4 -7 14 -7 10 0 16 6 13 13
-3 7 -10 10 -16 6 -6 -4 -7 -1 -3 6 6 9 13 8 27 -5 18 -16 24 -13 20 10 -3 15
23 25 36 14 10 -8 13 -6 13 6 0 10 5 14 10 11 6 -4 7 -12 4 -18 -5 -9 -3 -9 6
0 11 10 11 15 -1 30 -13 16 -12 17 3 5 13 -10 17 -10 22 0 3 7 3 2 0 -12 -4
-18 -3 -21 5 -11 5 8 18 16 28 17 44 6 57 12 74 32 9 12 24 22 33 22 8 0 18 4
21 10 4 6 -1 7 -12 4 -15 -5 -15 -4 -3 5 9 6 19 6 24 1 10 -10 36 -2 36 12 0
6 -7 4 -17 -3 -15 -13 -15 -12 -2 8 11 18 15 20 21 9 10 -18 43 -13 42 6 -1
14 3 16 45 20 20 2 18 28 -3 28 -6 0 -5 4 4 9 8 6 17 8 21 5 4 -2 10 0 14 6 8
13 25 13 25 -1 0 -5 -4 -8 -9 -4 -5 3 -12 1 -16 -5 -4 -6 -11 -7 -17 -4 -7 4
-8 2 -4 -5 4 -6 13 -8 19 -4 7 4 17 8 22 8 6 0 12 11 13 24 3 16 0 21 -9 16
-8 -5 -10 -4 -5 4 4 6 11 9 16 6 5 -3 32 11 59 30 32 23 55 34 63 29 7 -5 5 4
-5 19 -12 18 -13 26 -5 25 7 -2 12 3 11 10 -2 6 2 12 8 12 6 0 8 -7 5 -17 -4
-10 -4 -14 0 -10 4 4 13 2 20 -4 8 -7 14 -6 20 2 4 8 3 9 -4 5 -7 -4 -12 -3
-12 3 0 5 3 11 8 14 4 2 1 2 -5 1 -7 -2 -13 1 -13 6 0 6 4 10 10 10 5 0 9 6 7
13 -1 6 4 11 11 10 11 -3 17 10 13 31 -1 5 5 4 13 -4 9 -7 16 -11 17 -9 6 32
6 37 -6 33 -7 -3 -15 -1 -19 4 -3 5 8 8 24 7 16 -1 27 2 24 7 -3 4 -1 8 5 8 6
0 8 7 5 15 -4 8 -1 15 5 15 6 0 11 -5 11 -12 0 -6 3 -9 6 -5 3 3 2 12 -2 19
-5 7 -9 19 -10 26 -2 10 1 11 12 1 8 -6 18 -9 21 -5 4 4 1 11 -7 16 -13 8 -13
11 -1 22 10 10 12 10 7 0 -4 -7 -1 -12 9 -12 12 0 14 4 6 19 -8 14 -7 22 6 32
9 8 14 9 10 3 -4 -7 -1 -14 6 -17 8 -3 12 6 11 32 -1 20 2 43 7 51 8 11 9 10
4 -7 -6 -24 9 -40 21 -22 4 8 3 9 -4 5 -14 -9 -15 4 -2 24 8 12 10 12 10 1 0
-8 3 -12 6 -8 3 3 -1 20 -10 38 -9 18 -14 35 -11 37 3 3 5 0 5 -7 0 -7 4 -10
9 -6 5 3 13 0 17 -6 5 -8 3 -9 -6 -4 -8 5 -11 4 -6 -3 4 -6 14 -8 23 -5 11 4
13 8 5 11 -15 5 -16 42 -1 42 5 0 8 -4 5 -8 -3 -5 2 -9 10 -9 10 0 11 4 4 11
-17 17 -11 29 8 15 15 -13 16 -12 3 4 -8 10 -20 16 -27 13 -7 -3 -16 -1 -19 4
-3 5 9 7 26 5 l31 -4 -18 27 c-13 20 -13 24 -2 15 8 -7 18 -9 22 -5 7 7 11 8
37 11 5 0 7 6 3 13 -5 7 -3 8 6 3 10 -6 10 -10 -2 -19 -14 -10 -14 -13 0 -26
14 -13 15 -12 10 2 -9 23 65 71 95 62 22 -6 22 -6 2 9 -20 16 -20 16 3 10 18
-4 21 -2 16 11 -5 12 -2 15 9 10 9 -3 14 -14 12 -26 -3 -11 -1 -17 3 -14 4 4
7 11 7 14 2 24 17 62 24 58 4 -3 8 1 8 9 0 8 -3 12 -7 10 -3 -2 -6 5 -6 15 0
10 5 16 11 14 5 -2 17 0 25 6 13 8 12 11 -5 24 -20 15 -20 15 3 11 14 -2 20 0
16 7 -4 5 0 14 7 19 8 5 9 9 3 9 -6 0 -10 10 -9 22 1 13 -2 32 -8 42 -7 15 -6
18 5 13 9 -3 15 1 15 10 0 9 -9 18 -19 21 -10 2 -18 8 -18 13 0 5 7 5 17 2 11
-5 14 -3 8 6 -4 8 -2 17 6 22 11 7 11 9 1 9 -10 0 -10 5 -1 21 8 15 8 19 0 15
-6 -4 -11 -2 -11 4 0 6 -4 8 -10 5 -6 -3 -7 1 -4 9 5 13 10 13 27 5 l22 -12
-20 20 c-11 11 -24 18 -30 16 -5 -3 1 5 15 18 24 21 24 21 3 15 -24 -8 -32 7
-12 20 8 4 7 9 -2 16 -11 8 -11 9 1 5 8 -2 14 -10 13 -16 -2 -6 1 -11 7 -11 5
0 8 10 6 23 -2 14 -9 21 -20 19 -9 -2 -16 2 -16 8 0 5 10 10 23 10 13 0 17 3
11 8 -6 4 -10 15 -9 24 2 9 -4 23 -13 30 -13 11 -14 11 -7 -2 8 -13 7 -13 -8
-1 -18 15 -23 26 -7 16 6 -3 10 -2 10 4 0 5 3 16 6 24 5 15 -23 50 -35 43 -4
-3 -7 5 -8 17 0 12 1 16 4 9 3 -6 10 -9 15 -6 7 5 8 2 3 -7 -6 -11 -5 -12 5
-2 12 11 11 15 -6 28 -10 8 -24 13 -30 11 -6 -2 -11 2 -11 10 0 12 4 12 23 -1
13 -8 27 -15 31 -15 4 0 1 5 -7 10 -13 9 -13 11 0 21 12 8 9 9 -10 3 -22 -6
-23 -5 -11 10 7 9 11 17 7 17 -3 1 -10 3 -16 4 -5 1 -14 3 -19 4 -5 0 -12 8
-15 17 -3 9 -2 12 4 9 11 -7 7 36 -5 55 -4 6 -1 18 7 27 7 10 8 14 1 10 -6 -4
-13 -1 -16 5 -3 10 -7 10 -21 -1 -14 -12 -16 -12 -10 3 3 9 12 16 20 16 8 0
14 5 14 10 0 6 -4 10 -9 10 -5 0 -14 13 -21 30 -7 17 -19 30 -27 30 -8 0 -11
-5 -7 -12 4 -7 3 -8 -4 -4 -6 4 -9 13 -6 20 3 7 -2 20 -10 29 -20 20 -21 38
-1 31 8 -4 15 -2 15 4 0 15 -30 8 -41 -9 -12 -19 -11 -2 1 21 7 13 6 19 -5 23
-9 4 -12 1 -8 -9 3 -7 0 -14 -7 -14 -6 0 -9 4 -5 9 3 6 -2 14 -11 19 -15 8
-15 10 0 15 10 4 15 3 11 -3 -10 -16 1 -12 15 6 11 12 11 15 -1 12 -8 -2 -13
3 -11 10 1 8 -2 11 -8 7 -6 -3 -7 -11 -4 -17 4 -7 2 -8 -5 -4 -6 4 -9 12 -6
17 11 17 14 50 4 44 -5 -4 -9 -1 -9 6 0 7 -3 9 -6 6 -4 -4 -1 -13 5 -21 8 -10
9 -16 1 -21 -12 -8 -12 -8 -14 35 -2 27 -7 36 -27 41 -19 6 -11 13 12 11 3 -1
6 5 6 12 0 7 -5 13 -11 14 -37 3 -51 11 -48 26 3 14 -9 21 -31 17 -5 -1 -6 3
-3 8 4 5 -1 17 -10 25 -8 9 -11 16 -5 16 6 0 11 8 11 18 0 14 -2 15 -10 2 -8
-12 -10 -11 -10 6 0 19 -18 35 -42 38 -3 1 -10 4 -14 8 -3 4 3 6 14 3 12 -2
24 1 28 6 3 5 2 9 -3 8 -27 -5 -40 5 -56 41 -9 23 -22 38 -27 35 -6 -3 -10 -8
-10 -11 0 -3 5 -2 12 2 7 4 8 3 4 -5 -12 -20 -26 -2 -22 30 2 16 1 27 -2 24
-3 -2 -12 1 -21 8 -14 11 -15 10 -1 -8 14 -19 14 -20 -6 -2 -11 9 -24 14 -29
10 -4 -5 -5 -3 -1 4 3 6 -2 16 -11 22 -11 6 -13 11 -5 11 8 0 12 9 10 23 -2
14 2 21 10 19 8 -1 11 2 7 8 -5 8 -11 8 -21 -1 -7 -6 -12 -15 -9 -18 2 -4 -2
-8 -9 -8 -7 0 -13 6 -13 13 0 7 4 11 8 8 4 -2 7 9 7 26 -1 21 -4 27 -9 18 -7
-10 -9 -9 -9 5 0 9 5 17 12 17 6 0 8 3 5 6 -4 4 -13 1 -22 -6 -9 -7 -18 -10
-22 -6 -3 3 -1 6 5 6 7 0 12 5 12 11 0 5 -5 7 -11 4 -5 -4 -3 9 5 28 12 31 12
35 0 30 -8 -3 -12 -9 -9 -13 3 -5 1 -12 -5 -15 -6 -4 -10 -3 -9 2 3 18 -2 34
-9 29 -4 -2 -8 6 -8 19 0 14 2 22 6 19 3 -3 5 -11 5 -16 0 -6 6 -12 13 -14 7
-1 8 0 2 3 -8 3 -7 9 1 19 7 8 9 17 5 21 -3 3 -6 1 -6 -6 0 -9 -4 -8 -15 3
-20 19 -19 27 3 19 10 -3 6 2 -8 13 -14 10 -29 18 -33 16 -4 -1 -3 7 3 18 9
16 8 20 -5 20 -8 0 -15 5 -15 10 0 6 5 10 12 10 6 0 8 3 4 7 -4 5 -14 -1 -22
-11 -12 -17 -13 -16 -11 17 3 27 0 34 -9 27 -8 -7 -15 -5 -24 5 -13 16 -9 18
25 16 19 -1 18 0 -2 8 -12 6 -24 19 -28 30 -3 11 -14 23 -25 26 -23 7 -33 32
-17 41 7 4 9 4 5 -1 -9 -10 10 -35 26 -35 7 0 6 4 -2 9 -8 4 -14 12 -14 17 -1
15 -22 39 -38 42 -8 2 -22 10 -31 18 -9 8 -19 11 -24 7 -4 -5 -5 -3 -2 4 4 6
0 18 -8 26 -20 21 -19 33 2 16 15 -12 16 -12 10 4 -4 10 -7 21 -7 23 0 3 -3 3
-7 1 -5 -3 -15 2 -23 11 -13 14 -12 15 3 9 9 -3 19 -2 22 4 4 5 3 9 -2 8 -21
-4 -24 2 -12 19 13 16 13 16 -6 0 -15 -12 -24 -14 -35 -7 -12 9 -12 10 3 5 9
-3 17 -1 17 3 0 12 -29 23 -41 16 -5 -4 -6 1 -3 10 5 12 10 13 17 6 6 -6 14
-11 19 -11 4 0 -4 11 -18 25 -14 14 -31 22 -39 19 -8 -4 -15 -1 -15 6 0 6 -5
8 -11 4 -7 -4 -7 1 1 16 8 15 8 20 1 16 -6 -4 -14 0 -17 9 -4 9 -10 13 -13 8
-3 -4 -16 -14 -28 -20 -19 -11 -21 -10 -17 2 3 7 1 21 -4 30 -8 16 -9 16 -15
1 -5 -12 -3 -15 6 -10 9 6 9 5 0 -8 -7 -8 -9 -19 -5 -23 4 -5 1 -5 -6 -1 -7 5
-11 11 -8 14 3 3 0 12 -7 20 -10 13 -9 14 2 7 10 -6 12 -4 6 4 -5 9 -10 10
-18 2 -13 -13 -30 -15 -23 -2 3 5 -3 20 -15 32 -11 13 -18 18 -14 12 3 -7 1
-13 -5 -13 -6 0 -8 -5 -4 -12 5 -9 2 -9 -9 1 -9 7 -17 19 -17 25 0 6 5 4 11
-4 9 -13 10 -13 6 0 -2 8 -11 13 -18 12 -38 -10 -49 -10 -44 -1 4 5 10 7 15 4
4 -3 14 3 21 13 13 15 12 16 -3 4 -13 -10 -17 -10 -21 0 -4 10 -6 10 -6 1 -1
-7 -6 -13 -12 -13 -5 0 -8 4 -4 9 3 5 0 13 -6 17 -8 4 -9 3 -5 -4 4 -7 3 -12
-3 -12 -5 0 -12 6 -15 13 -3 7 -5 7 -3 -3 2 -17 -7 -22 -28 -14 -8 3 -12 11
-9 16 4 6 10 5 15 -3 6 -10 8 -7 6 9 -1 22 -17 32 -17 11 0 -6 -7 -8 -16 -5
-10 4 -13 2 -9 -7 4 -6 -1 -3 -10 8 -13 16 -19 17 -34 8 -15 -10 -22 -9 -30 1
-6 7 -8 16 -4 19 3 4 -1 7 -11 7 -9 0 -15 -4 -12 -8 2 -4 0 -14 -5 -22 -9 -13
-10 -13 -8 0 4 24 -21 67 -38 67 -13 0 -12 -3 2 -14 10 -7 15 -16 10 -20 -4
-5 -10 -2 -12 5 -3 6 -11 12 -19 12 -9 0 -12 5 -9 10 9 14 -18 12 -34 -2 -11
-10 -13 -10 -7 0 4 6 2 12 -4 12 -6 0 -8 5 -4 12 5 8 2 9 -9 5 -9 -3 -19 -2
-23 4 -4 6 -12 5 -22 -3 -12 -10 -12 -7 2 15 11 16 14 27 7 27 -6 0 -11 -6
-11 -12 0 -9 -4 -8 -10 2 -9 13 -10 13 -10 0 -1 -12 -3 -12 -11 2 -5 10 -17
15 -27 12 -14 -5 -14 -4 -2 4 10 8 18 8 27 0 9 -7 13 -7 13 1 0 11 -13 15 -37
12 -7 -1 -13 3 -13 10 0 8 -4 8 -15 -1 -10 -8 -15 -9 -15 -2 0 6 8 16 18 21
23 14 6 14 -19 1 -16 -9 -21 -7 -29 12 l-10 23 3 -25 c1 -18 -2 -24 -13 -22
-8 2 -24 6 -34 8 -11 2 -22 7 -25 12 -11 15 -49 9 -44 -8 2 -8 -3 -4 -11 10
-8 14 -15 19 -16 12 0 -8 -9 -11 -25 -8 -13 3 -27 0 -30 -5 -4 -5 -11 -9 -16
-9 -6 0 -8 4 -5 8 3 5 -1 9 -9 9 -8 0 -11 -5 -8 -10 4 -6 -1 -8 -12 -4 -9 4
-25 2 -33 -5 -13 -11 -14 -11 -7 1 6 11 4 13 -7 8 -9 -3 -21 0 -28 6 -10 10
-12 8 -6 -7 6 -17 5 -17 -11 -5 -10 8 -21 19 -25 24 -4 6 -8 0 -8 -12 0 -13
-5 -23 -11 -23 -5 0 -8 4 -4 9 3 5 -4 12 -15 16 -11 4 -17 11 -14 17 4 7 2 8
-5 4 -6 -4 -9 -11 -6 -16 3 -5 0 -12 -6 -16 -7 -4 -9 -3 -6 3 8 12 -20 39 -30
29 -3 -3 -1 -6 5 -6 7 0 12 -7 12 -15 0 -8 -5 -15 -11 -15 -5 0 -8 3 -6 8 3 4
0 12 -7 18 -9 8 -16 7 -26 -4z m347 -27 c4 -4 3 -5 -4 -1 -6 3 -16 -2 -22 -11
-6 -11 -11 -13 -11 -5 0 8 -5 10 -12 6 -10 -6 -10 -4 0 8 13 17 36 18 49 3z
m77 -1 c3 -8 2 -12 -4 -9 -6 3 -10 10 -10 16 0 14 7 11 14 -7z m-954 -148 c0
-3 -4 -8 -10 -11 -5 -3 -10 -1 -10 4 0 6 5 11 10 11 6 0 10 -2 10 -4z m-54
-18 c3 -4 -1 -5 -10 -4 -8 1 -18 5 -22 8 -3 4 1 5 10 4 8 -1 18 -5 22 -8z
m1489 -28 c3 -6 -1 -7 -9 -4 -18 7 -21 14 -7 14 6 0 13 -4 16 -10z m105 -30
c0 -5 -5 -10 -11 -10 -5 0 -7 5 -4 10 3 6 8 10 11 10 2 0 4 -4 4 -10z m254
-88 c2 -4 -5 -9 -17 -9 -17 -2 -19 0 -7 7 18 12 18 12 24 2z m56 -56 c0 -2 -7
-7 -16 -10 -8 -3 -12 -2 -9 4 6 10 25 14 25 6z m170 -221 c0 -2 -6 -5 -13 -8
-8 -3 -14 1 -14 8 0 7 6 11 14 8 7 -3 13 -6 13 -8z m-2605 -5 c3 -5 1 -10 -4
-10 -6 0 -11 5 -11 10 0 6 2 10 4 10 3 0 8 -4 11 -10z m-25 -22 c0 -18 -2 -20
-9 -8 -6 8 -7 18 -5 22 9 14 14 9 14 -14z m2668 -73 c-3 -3 -9 2 -12 12 -6 14
-5 15 5 6 7 -7 10 -15 7 -18z m-2768 -80 c0 -2 -9 -3 -19 -2 -11 0 -18 5 -15
9 4 6 34 0 34 -7z m3075 -465 c3 -5 2 -10 -4 -10 -5 0 -13 5 -16 10 -3 6 -2
10 4 10 5 0 13 -4 16 -10z m-3190 -81 c-3 -12 -7 -24 -10 -27 -3 -3 -3 5 -1
19 6 30 5 29 10 29 3 0 3 -10 1 -21z m3255 -4 c0 -2 -6 -5 -13 -8 -8 -3 -14 1
-14 8 0 7 6 11 14 8 7 -3 13 -6 13 -8z m-3240 -50 c0 -2 -6 -5 -13 -8 -8 -3
-14 1 -14 8 0 7 6 11 14 8 7 -3 13 -6 13 -8z m3520 -405 c7 -14 7 -20 0 -20
-5 0 -10 6 -10 14 0 8 -6 17 -12 19 -10 4 -10 6 -1 6 7 1 17 -8 23 -19z m22
-67 c-6 -2 -9 -10 -6 -15 4 -7 2 -8 -5 -4 -13 9 -5 26 12 25 9 0 8 -2 -1 -6z
m13 -42 c3 -5 2 -12 -3 -15 -5 -3 -9 1 -9 9 0 17 3 19 12 6z m-3405 -53 c0
-12 -6 -9 -26 13 -19 22 -19 22 4 8 12 -8 22 -17 22 -21z m3472 -157 c7 11 9
11 6 1 -5 -17 -23 -17 -24 0 -1 9 1 8 4 -1 3 -12 5 -12 14 0z m24 -76 c-1 -8
-6 -18 -11 -22 -4 -5 -5 -2 0 6 6 11 4 13 -11 8 -18 -7 -18 -7 0 8 24 18 25
18 22 0z m-3396 -79 c0 -2 -7 -7 -16 -10 -8 -3 -12 -2 -9 4 6 10 25 14 25 6z
m3400 -126 c0 -5 -5 -10 -11 -10 -5 0 -7 5 -4 10 3 6 8 10 11 10 2 0 4 -4 4
-10z m7 -86 c-3 -3 -12 -4 -19 -1 -8 3 -5 6 6 6 11 1 17 -2 13 -5z m-10 -64
c1 -11 -2 -20 -7 -20 -6 0 -7 17 -1 38 3 8 7 -1 8 -18z m-3156 -174 c-10 -11
-8 -17 6 -25 10 -6 13 -11 7 -11 -21 0 -35 25 -22 38 17 17 23 15 9 -2z m3005
-35 c8 6 14 9 14 6 0 -3 -13 -15 -30 -27 -26 -18 -30 -19 -30 -5 0 9 5 13 10
10 6 -3 10 2 11 12 0 11 3 13 6 5 4 -10 8 -10 19 -1z m-2916 -101 c0 -5 -2
-10 -4 -10 -3 0 -8 5 -11 10 -3 6 -1 10 4 10 6 0 11 -4 11 -10z m430 -460 c0
-5 -7 -7 -15 -4 -8 4 -15 8 -15 10 0 2 7 4 15 4 8 0 15 -4 15 -10z m2020 -19
c0 -5 -7 -12 -16 -15 -14 -5 -15 -4 -4 9 14 17 20 19 20 6z m-1880 -61 c0 -5
-4 -10 -10 -10 -5 0 -10 5 -10 10 0 6 5 10 10 10 6 0 10 -4 10 -10z m1654
-118 c3 -5 -1 -9 -9 -9 -8 0 -12 4 -9 9 3 4 7 8 9 8 2 0 6 -4 9 -8z m-1354
-42 c0 -5 -2 -10 -4 -10 -3 0 -8 5 -11 10 -3 6 -1 10 4 10 6 0 11 -4 11 -10z
m1208 -33 c-7 -8 -19 -14 -26 -14 -11 0 -10 4 4 14 10 7 22 13 26 13 5 0 3 -6
-4 -13z m-1153 -7 c3 -5 1 -10 -4 -10 -6 0 -11 5 -11 10 0 6 2 10 4 10 3 0 8
-4 11 -10z m45 6 c0 -2 -8 -10 -17 -17 -16 -13 -17 -12 -4 4 13 16 21 21 21
13z m1060 -6 c0 -5 -5 -10 -11 -10 -5 0 -7 5 -4 10 3 6 8 10 11 10 2 0 4 -4 4
-10z m-735 -91 c-10 -15 -25 -10 -19 6 4 8 10 12 15 9 5 -3 7 -10 4 -15z m200
2 c-3 -6 -11 -11 -16 -11 -5 0 -4 6 3 14 14 16 24 13 13 -3z m-44 -14 c-10 -9
-11 -8 -5 6 3 10 9 15 12 12 3 -3 0 -11 -7 -18z m179 3 c0 -5 -2 -10 -4 -10
-3 0 -8 5 -11 10 -3 6 -1 10 4 10 6 0 11 -4 11 -10z"/>
<path d="M1868 3853 c7 -3 16 -2 19 1 4 3 -2 6 -13 5 -11 0 -14 -3 -6 -6z"/>
<path d="M1931 3846 c-9 -11 -9 -16 1 -22 7 -4 10 -4 6 1 -4 4 -3 14 3 22 6 7
9 13 6 13 -2 0 -10 -6 -16 -14z"/>
<path d="M1447 3843 c-4 -3 -7 -11 -7 -17 0 -6 5 -5 12 2 6 6 9 14 7 17 -3 3
-9 2 -12 -2z"/>
<path d="M1696 3838 c3 -4 11 -5 19 -1 21 7 19 12 -4 10 -11 0 -18 -5 -15 -9z"/>
<path d="M1950 3831 c0 -5 7 -12 16 -15 14 -5 15 -4 4 9 -14 17 -20 19 -20 6z"/>
<path d="M1216 3794 c-5 -14 -4 -15 9 -4 17 14 19 20 6 20 -5 0 -12 -7 -15
-16z"/>
<path d="M2146 3738 c3 -5 10 -6 15 -3 13 9 11 12 -6 12 -8 0 -12 -4 -9 -9z"/>
<path d="M2195 3729 c-4 -6 -5 -12 -2 -15 2 -3 7 2 10 11 7 17 1 20 -8 4z"/>
<path d="M957 3693 c6 -16 8 -16 23 1 9 12 8 15 -8 13 -12 0 -18 -6 -15 -14z"/>
<path d="M2335 3661 c-3 -5 -1 -12 5 -16 5 -3 10 1 10 9 0 18 -6 21 -15 7z"/>
<path d="M650 3529 c0 -5 -4 -7 -10 -4 -5 3 -10 1 -10 -4 0 -14 17 -14 25 -1
4 6 11 7 17 4 7 -4 8 -2 4 4 -9 15 -26 16 -26 1z"/>
<path d="M2775 3480 c3 -5 8 -10 11 -10 2 0 4 5 4 10 0 6 -5 10 -11 10 -5 0
-7 -4 -4 -10z"/>
<path d="M2833 3465 c0 -8 4 -12 9 -9 5 3 6 10 3 15 -9 13 -12 11 -12 -6z"/>
<path d="M490 3401 c0 -7 -5 -9 -12 -5 -7 5 -8 3 -3 -5 5 -9 10 -10 18 -2 6 6
8 14 4 18 -4 3 -7 1 -7 -6z"/>
<path d="M2912 3335 c4 -4 3 -14 -4 -22 -9 -11 -6 -19 12 -36 13 -12 18 -15
11 -5 -6 9 -8 18 -4 20 4 3 2 3 -4 2 -16 -4 -17 8 -2 23 8 8 7 13 -3 18 -7 5
-10 5 -6 0z"/>
<path d="M370 3280 c0 -5 0 -12 0 -15 0 -12 14 -4 16 10 1 8 -2 15 -7 15 -5 0
-9 -4 -9 -10z"/>
<path d="M3020 3165 c0 -2 6 -8 13 -14 10 -8 14 -7 14 2 0 8 -6 14 -14 14 -7
0 -13 -1 -13 -2z"/>
<path d="M242 3114 c-7 -8 -8 -14 -3 -14 10 0 25 19 20 25 -2 1 -10 -3 -17
-11z"/>
<path d="M3110 3006 c0 -2 7 -7 16 -10 8 -3 12 -2 9 4 -6 10 -25 14 -25 6z"/>
<path d="M154 2946 c1 -8 5 -18 8 -22 4 -3 5 1 4 10 -1 8 -5 18 -8 22 -4 3 -5
-1 -4 -10z"/>
<path d="M142 2871 c-11 -7 -11 -9 0 -14 9 -3 15 1 15 9 0 8 -1 14 -1 14 -1 0
-7 -4 -14 -9z"/>
<path d="M94 2725 c-19 -15 -19 -15 1 -8 18 6 18 5 6 -10 -7 -9 -10 -17 -5
-17 5 0 2 -5 -6 -11 -13 -9 -13 -10 0 -6 8 2 16 9 16 15 1 7 2 13 4 15 3 3 8
37 6 37 -1 0 -11 -7 -22 -15z"/>
<path d="M3220 2695 c13 -16 30 -11 30 8 0 7 -4 6 -10 -3 -6 -10 -10 -11 -10
-2 0 6 -5 12 -11 12 -8 0 -8 -5 1 -15z"/>
<path d="M3340 2576 c0 -2 7 -7 16 -10 8 -3 12 -2 9 4 -6 10 -25 14 -25 6z"/>
<path d="M3417 2464 c-3 -4 -2 -15 3 -24 11 -20 40 -34 40 -20 0 6 -7 10 -15
10 -8 0 -15 5 -15 11 0 5 6 7 13 3 8 -5 8 -2 -2 9 -15 19 -15 19 -24 11z"/>
<path d="M3462 2397 c-8 -10 -6 -13 11 -14 12 0 16 1 9 4 -6 3 -10 9 -6 14 8
14 -2 11 -14 -4z"/>
<path d="M133 2310 c1 -11 6 -20 12 -20 5 0 3 -5 -5 -11 -13 -9 -13 -10 0 -6
8 2 13 11 11 18 -2 8 -4 20 -4 27 0 6 -4 12 -8 12 -4 0 -7 -9 -6 -20z"/>
<path d="M154 2190 c0 -13 4 -16 10 -10 7 7 7 13 0 20 -6 6 -10 3 -10 -10z"/>
<path d="M3620 2120 c6 -11 16 -20 23 -19 9 0 9 2 0 6 -7 2 -13 11 -13 19 0 8
-5 14 -10 14 -7 0 -7 -6 0 -20z"/>
<path d="M3715 1880 c3 -5 8 -10 11 -10 2 0 4 5 4 10 0 6 -5 10 -11 10 -5 0
-7 -4 -4 -10z"/>
<path d="M260 1839 c0 -5 5 -7 10 -4 6 3 10 8 10 11 0 2 -4 4 -10 4 -5 0 -10
-5 -10 -11z"/>
<path d="M280 1820 c0 -5 5 -10 11 -10 5 0 7 5 4 10 -3 6 -8 10 -11 10 -2 0
-4 -4 -4 -10z"/>
<path d="M277 1749 c7 -7 15 -10 18 -7 3 3 -2 9 -12 12 -14 6 -15 5 -6 -5z"/>
<path d="M327 1539 c7 -7 15 -10 18 -7 3 3 -2 9 -12 12 -14 6 -15 5 -6 -5z"/>
<path d="M400 1453 c8 -3 7 -9 -1 -19 -10 -12 -9 -13 5 -8 18 7 17 26 -2 30
-7 1 -8 0 -2 -3z"/>
<path d="M447 1360 c10 -11 19 -20 21 -20 1 0 -2 9 -8 20 -6 11 -15 20 -20 20
-6 0 -2 -9 7 -20z"/>
<path d="M524 1199 c-4 -7 -3 -9 4 -5 5 3 13 0 15 -6 4 -9 6 -10 6 -1 1 17
-16 25 -25 12z"/>
<path d="M636 1052 c-3 -5 1 -9 9 -9 8 0 12 4 9 9 -3 4 -7 8 -9 8 -2 0 -6 -4
-9 -8z"/>
<path d="M3526 1011 c-3 -5 1 -14 8 -20 12 -10 13 -8 9 8 -6 23 -9 25 -17 12z"/>
<path d="M918 689 c12 -11 20 -25 16 -30 -3 -5 -2 -9 3 -8 21 4 34 -2 27 -13
-4 -7 -3 -8 5 -4 8 5 1 18 -24 42 -20 19 -39 34 -43 34 -3 0 4 -9 16 -21z"/>
<path d="M3270 579 c0 -5 5 -7 10 -4 6 3 10 8 10 11 0 2 -4 4 -10 4 -5 0 -10
-5 -10 -11z"/>
<path d="M3240 576 c0 -2 8 -10 18 -17 15 -13 16 -12 3 4 -13 16 -21 21 -21
13z"/>
<path d="M1188 473 c6 -3 9 -10 6 -15 -4 -7 -2 -8 4 -4 6 3 15 -2 21 -11 6
-11 11 -13 11 -5 0 7 5 10 11 7 6 -4 5 1 -2 13 -7 11 -23 19 -38 19 -14 0 -20
-2 -13 -4z"/>
<path d="M3110 432 c-22 -19 -30 -31 -22 -36 12 -7 13 -6 16 13 0 5 12 18 26
30 14 11 23 20 20 21 -3 0 -21 -13 -40 -28z"/>
<path d="M1300 386 c0 -2 8 -10 18 -17 15 -13 16 -12 3 4 -13 16 -21 21 -21
13z"/>
<path d="M1343 366 c0 -7 9 -13 19 -13 11 -1 18 3 16 9 -5 15 -35 19 -35 4z"/>
<path d="M2970 321 c0 -6 4 -13 10 -16 6 -3 7 1 4 9 -7 18 -14 21 -14 7z"/>
<path d="M1493 286 c0 -15 22 -15 34 0 4 5 4 6 -1 2 -5 -4 -14 -3 -21 2 -8 7
-12 5 -12 -4z"/>
<path d="M1574 239 c-4 -7 -3 -9 4 -5 5 3 13 0 15 -6 4 -9 6 -10 6 -1 1 17
-16 25 -25 12z"/>
<path d="M1960 161 c-6 -12 -7 -21 -1 -21 10 0 24 30 17 37 -2 3 -9 -5 -16
-16z"/>
<path d="M1894 156 c1 -8 5 -18 8 -22 4 -3 5 1 4 10 -1 8 -5 18 -8 22 -4 3 -5
-1 -4 -10z"/>
<path d="M2460 140 c-10 -18 -14 -19 -28 -8 -15 12 -16 11 -3 -5 13 -16 15
-16 31 -2 10 9 25 13 36 9 20 -8 19 -6 -8 14 -14 11 -18 10 -28 -8z"/>
<path d="M2118 123 c7 -3 16 -2 19 1 4 3 -2 6 -13 5 -11 0 -14 -3 -6 -6z"/>
</g>
</svg>
